<svg width="610" height="69" viewBox="0 0 610 69" fill="none" xmlns="http://www.w3.org/2000/svg">
<path d="M110 67.1058H156.18V60.9705H116.597V0.954797H110V67.1058Z" fill="white"/>
<path d="M223.093 0.954797L203.071 33.6151L183.049 0.954797H175.575L199.703 39.7044V67.1058H206.3V39.7044L230.382 0.954797H223.093Z" fill="white"/>
<path d="M326.175 0.954797L303.108 62.1237L279.856 0.954797H268.645V67.1058H275.15V6.21367L298.402 67.1058H307.536L330.603 6.39819V67.1058H337.108V0.954797H326.175Z" fill="white"/>
<path d="M383.814 67.1058H390.411V39.8889H410.249C421.736 40.0273 431.194 32.9232 431.056 20.5141C431.24 8.15114 421.69 0.862536 410.249 0.954797H383.814V67.1058ZM390.411 33.7535V7.13627H408.819C413.571 7.13627 417.354 8.28953 420.168 10.5499C422.982 12.8103 424.412 16.1317 424.412 20.5141C424.412 29.2327 418.415 33.7535 408.819 33.7535H390.411Z" fill="white"/>
<path d="M471.349 43.487C471.349 58.2949 479.376 68.0284 495.477 68.0284C511.116 68.0284 519.559 58.2488 519.559 43.487V0.954797H512.916V42.5644C512.916 54.789 506.964 61.8931 495.938 61.8931H494.97C483.944 61.8931 477.992 54.789 477.992 42.5644V0.954797H471.349V43.487Z" fill="white"/>
<path d="M560.406 46.301C560.406 60.0017 569.863 68.0284 585.918 68.0284C599.897 68.1207 609.123 60.786 608.985 49.2533C608.985 39.7505 603.264 33.8458 591.869 31.5854L581.305 29.5095C574.338 28.0795 570.325 24.5736 570.325 18.8073C570.325 11.6571 576.83 6.16753 585.918 6.16753H586.841C596.021 6.16753 602.849 11.7493 603.403 20.3296H610C609.677 8.01275 600.358 -0.106203 586.379 0.0321881C572.724 -0.152334 563.543 8.52019 563.728 18.9457C563.728 28.2179 568.987 33.9381 579.505 36.1062L590.07 38.2743C598.42 39.9811 602.342 43.5332 602.342 49.6224C602.342 56.542 596.667 61.8931 586.748 61.8931H585.826C574.661 61.8931 567.003 56.219 567.003 46.301H560.406Z" fill="white"/>
<path fill-rule="evenodd" clip-rule="evenodd" d="M34.0137 68.0275C52.799 68.0275 68.0275 52.799 68.0275 34.0137C68.0275 15.2285 52.799 0 34.0137 0C15.2285 0 0 15.2285 0 34.0137C0 52.799 15.2285 68.0275 34.0137 68.0275ZM34.0136 62.2378C49.6014 62.2378 62.2378 49.6014 62.2378 34.0136C62.2378 18.4259 49.6014 5.78947 34.0136 5.78947C18.4259 5.78947 5.78947 18.4259 5.78947 34.0136C5.78947 49.6014 18.4259 62.2378 34.0136 62.2378Z" fill="white"/>
</svg>
