<svg width="480" height="480" viewBox="0 0 480 480" fill="none" xmlns="http://www.w3.org/2000/svg">
<g style="mix-blend-mode:difference">
<rect x="240.5" y="228" width="24" height="1" transform="rotate(90 240.5 228)" fill="white" fill-opacity="0.5"/>
</g>
<g style="mix-blend-mode:difference">
<rect x="193" y="225" width="30" height="1" transform="rotate(90 193 225)" fill="white" fill-opacity="0.5"/>
</g>
<g style="mix-blend-mode:difference">
<rect x="145" y="225" width="30" height="1" transform="rotate(90 145 225)" fill="white" fill-opacity="0.5"/>
</g>
<g style="mix-blend-mode:difference">
<rect x="97" y="225" width="30" height="1" transform="rotate(90 97 225)" fill="white" fill-opacity="0.5"/>
</g>
<g style="mix-blend-mode:difference">
<rect x="49" y="225" width="30" height="1" transform="rotate(90 49 225)" fill="white" fill-opacity="0.5"/>
</g>
<g style="mix-blend-mode:difference">
<rect x="25" y="235" width="10" height="0.999999" transform="rotate(90 25 235)" fill="white" fill-opacity="0.5"/>
</g>
<g style="mix-blend-mode:difference">
<rect x="73" y="235" width="10" height="0.999999" transform="rotate(90 73 235)" fill="white" fill-opacity="0.5"/>
</g>
<g style="mix-blend-mode:difference">
<rect x="121" y="235" width="10" height="0.999999" transform="rotate(90 121 235)" fill="white" fill-opacity="0.5"/>
</g>
<g style="mix-blend-mode:difference">
<rect x="169" y="235" width="10" height="0.999999" transform="rotate(90 169 235)" fill="white" fill-opacity="0.5"/>
</g>
<g style="mix-blend-mode:difference">
<rect x="217" y="235" width="10" height="0.999999" transform="rotate(90 217 235)" fill="white" fill-opacity="0.5"/>
</g>
<g style="mix-blend-mode:difference">
<rect x="37" y="235" width="10" height="0.999999" transform="rotate(90 37 235)" fill="white" fill-opacity="0.5"/>
</g>
<g style="mix-blend-mode:difference">
<rect x="85" y="235" width="10" height="0.999999" transform="rotate(90 85 235)" fill="white" fill-opacity="0.5"/>
</g>
<g style="mix-blend-mode:difference">
<rect x="133" y="235" width="10" height="0.999999" transform="rotate(90 133 235)" fill="white" fill-opacity="0.5"/>
</g>
<g style="mix-blend-mode:difference">
<rect x="181" y="235" width="10" height="0.999999" transform="rotate(90 181 235)" fill="white" fill-opacity="0.5"/>
</g>
<g style="mix-blend-mode:difference">
<rect x="19" y="235" width="10" height="0.999999" transform="rotate(90 19 235)" fill="white" fill-opacity="0.5"/>
</g>
<g style="mix-blend-mode:difference">
<rect x="67" y="235" width="10" height="0.999999" transform="rotate(90 67 235)" fill="white" fill-opacity="0.5"/>
</g>
<g style="mix-blend-mode:difference">
<rect x="115" y="235" width="10" height="0.999999" transform="rotate(90 115 235)" fill="white" fill-opacity="0.5"/>
</g>
<g style="mix-blend-mode:difference">
<rect x="163" y="235" width="10" height="0.999999" transform="rotate(90 163 235)" fill="white" fill-opacity="0.5"/>
</g>
<g style="mix-blend-mode:difference">
<rect x="211" y="235" width="10" height="0.999999" transform="rotate(90 211 235)" fill="white" fill-opacity="0.5"/>
</g>
<g style="mix-blend-mode:difference">
<rect x="13" y="235" width="10" height="0.999999" transform="rotate(90 13 235)" fill="white" fill-opacity="0.5"/>
</g>
<g style="mix-blend-mode:difference">
<rect x="61" y="235" width="10" height="0.999999" transform="rotate(90 61 235)" fill="white" fill-opacity="0.5"/>
</g>
<g style="mix-blend-mode:difference">
<rect x="109" y="235" width="10" height="0.999999" transform="rotate(90 109 235)" fill="white" fill-opacity="0.5"/>
</g>
<g style="mix-blend-mode:difference">
<rect x="157" y="235" width="10" height="0.999999" transform="rotate(90 157 235)" fill="white" fill-opacity="0.5"/>
</g>
<g style="mix-blend-mode:difference">
<rect x="205" y="235" width="10" height="0.999999" transform="rotate(90 205 235)" fill="white" fill-opacity="0.5"/>
</g>
<g style="mix-blend-mode:difference">
<rect x="7" y="235" width="10" height="0.999999" transform="rotate(90 7 235)" fill="white" fill-opacity="0.5"/>
</g>
<g style="mix-blend-mode:difference">
<rect x="55" y="235" width="10" height="0.999999" transform="rotate(90 55 235)" fill="white" fill-opacity="0.5"/>
</g>
<g style="mix-blend-mode:difference">
<rect x="103" y="235" width="10" height="0.999999" transform="rotate(90 103 235)" fill="white" fill-opacity="0.5"/>
</g>
<g style="mix-blend-mode:difference">
<rect x="151" y="235" width="10" height="0.999999" transform="rotate(90 151 235)" fill="white" fill-opacity="0.5"/>
</g>
<g style="mix-blend-mode:difference">
<rect x="199" y="235" width="10" height="0.999999" transform="rotate(90 199 235)" fill="white" fill-opacity="0.5"/>
</g>
<g style="mix-blend-mode:difference">
<rect x="31" y="235" width="10" height="0.999999" transform="rotate(90 31 235)" fill="white" fill-opacity="0.5"/>
</g>
<g style="mix-blend-mode:difference">
<rect x="79" y="235" width="10" height="0.999999" transform="rotate(90 79 235)" fill="white" fill-opacity="0.5"/>
</g>
<g style="mix-blend-mode:difference">
<rect x="127" y="235" width="10" height="0.999999" transform="rotate(90 127 235)" fill="white" fill-opacity="0.5"/>
</g>
<g style="mix-blend-mode:difference">
<rect x="175" y="235" width="10" height="0.999999" transform="rotate(90 175 235)" fill="white" fill-opacity="0.5"/>
</g>
<g style="mix-blend-mode:difference">
<rect x="223" y="235" width="10" height="0.999999" transform="rotate(90 223 235)" fill="white" fill-opacity="0.5"/>
</g>
<g style="mix-blend-mode:difference">
<rect x="43" y="235" width="10" height="0.999999" transform="rotate(90 43 235)" fill="white" fill-opacity="0.5"/>
</g>
<g style="mix-blend-mode:difference">
<rect x="91" y="235" width="10" height="0.999999" transform="rotate(90 91 235)" fill="white" fill-opacity="0.5"/>
</g>
<g style="mix-blend-mode:difference">
<rect x="139" y="235" width="10" height="0.999999" transform="rotate(90 139 235)" fill="white" fill-opacity="0.5"/>
</g>
<g style="mix-blend-mode:difference">
<rect x="187" y="235" width="10" height="0.999999" transform="rotate(90 187 235)" fill="white" fill-opacity="0.5"/>
</g>
<g style="mix-blend-mode:difference">
<rect x="1" y="225" width="30" height="1" transform="rotate(90 1 225)" fill="white" fill-opacity="0.5"/>
</g>
<g style="mix-blend-mode:difference">
<rect x="287" y="255" width="30" height="1" transform="rotate(-90 287 255)" fill="white" fill-opacity="0.5"/>
</g>
<g style="mix-blend-mode:difference">
<rect x="335" y="255" width="30" height="1" transform="rotate(-90 335 255)" fill="white" fill-opacity="0.5"/>
</g>
<g style="mix-blend-mode:difference">
<rect x="383" y="255" width="30" height="1" transform="rotate(-90 383 255)" fill="white" fill-opacity="0.5"/>
</g>
<g style="mix-blend-mode:difference">
<rect x="431" y="255" width="30" height="1" transform="rotate(-90 431 255)" fill="white" fill-opacity="0.5"/>
</g>
<g style="mix-blend-mode:difference">
<rect x="455" y="245" width="10" height="0.999999" transform="rotate(-90 455 245)" fill="white" fill-opacity="0.5"/>
</g>
<g style="mix-blend-mode:difference">
<rect x="407" y="245" width="10" height="0.999999" transform="rotate(-90 407 245)" fill="white" fill-opacity="0.5"/>
</g>
<g style="mix-blend-mode:difference">
<rect x="359" y="245" width="10" height="0.999999" transform="rotate(-90 359 245)" fill="white" fill-opacity="0.5"/>
</g>
<g style="mix-blend-mode:difference">
<rect x="311" y="245" width="10" height="0.999999" transform="rotate(-90 311 245)" fill="white" fill-opacity="0.5"/>
</g>
<g style="mix-blend-mode:difference">
<rect x="263" y="245" width="10" height="0.999999" transform="rotate(-90 263 245)" fill="white" fill-opacity="0.5"/>
</g>
<g style="mix-blend-mode:difference">
<rect x="443" y="245" width="10" height="0.999999" transform="rotate(-90 443 245)" fill="white" fill-opacity="0.5"/>
</g>
<g style="mix-blend-mode:difference">
<rect x="395" y="245" width="10" height="0.999999" transform="rotate(-90 395 245)" fill="white" fill-opacity="0.5"/>
</g>
<g style="mix-blend-mode:difference">
<rect x="347" y="245" width="10" height="0.999999" transform="rotate(-90 347 245)" fill="white" fill-opacity="0.5"/>
</g>
<g style="mix-blend-mode:difference">
<rect x="299" y="245" width="10" height="0.999999" transform="rotate(-90 299 245)" fill="white" fill-opacity="0.5"/>
</g>
<g style="mix-blend-mode:difference">
<rect x="461" y="245" width="10" height="0.999999" transform="rotate(-90 461 245)" fill="white" fill-opacity="0.5"/>
</g>
<g style="mix-blend-mode:difference">
<rect x="413" y="245" width="10" height="0.999999" transform="rotate(-90 413 245)" fill="white" fill-opacity="0.5"/>
</g>
<g style="mix-blend-mode:difference">
<rect x="365" y="245" width="10" height="0.999999" transform="rotate(-90 365 245)" fill="white" fill-opacity="0.5"/>
</g>
<g style="mix-blend-mode:difference">
<rect x="317" y="245" width="10" height="0.999999" transform="rotate(-90 317 245)" fill="white" fill-opacity="0.5"/>
</g>
<g style="mix-blend-mode:difference">
<rect x="269" y="245" width="10" height="0.999999" transform="rotate(-90 269 245)" fill="white" fill-opacity="0.5"/>
</g>
<g style="mix-blend-mode:difference">
<rect x="467" y="245" width="10" height="0.999999" transform="rotate(-90 467 245)" fill="white" fill-opacity="0.5"/>
</g>
<g style="mix-blend-mode:difference">
<rect x="419" y="245" width="10" height="0.999999" transform="rotate(-90 419 245)" fill="white" fill-opacity="0.5"/>
</g>
<g style="mix-blend-mode:difference">
<rect x="371" y="245" width="10" height="0.999999" transform="rotate(-90 371 245)" fill="white" fill-opacity="0.5"/>
</g>
<g style="mix-blend-mode:difference">
<rect x="323" y="245" width="10" height="0.999999" transform="rotate(-90 323 245)" fill="white" fill-opacity="0.5"/>
</g>
<g style="mix-blend-mode:difference">
<rect x="275" y="245" width="10" height="0.999999" transform="rotate(-90 275 245)" fill="white" fill-opacity="0.5"/>
</g>
<g style="mix-blend-mode:difference">
<rect x="473" y="245" width="10" height="0.999999" transform="rotate(-90 473 245)" fill="white" fill-opacity="0.5"/>
</g>
<g style="mix-blend-mode:difference">
<rect x="425" y="245" width="10" height="0.999999" transform="rotate(-90 425 245)" fill="white" fill-opacity="0.5"/>
</g>
<g style="mix-blend-mode:difference">
<rect x="377" y="245" width="10" height="0.999999" transform="rotate(-90 377 245)" fill="white" fill-opacity="0.5"/>
</g>
<g style="mix-blend-mode:difference">
<rect x="329" y="245" width="10" height="0.999999" transform="rotate(-90 329 245)" fill="white" fill-opacity="0.5"/>
</g>
<g style="mix-blend-mode:difference">
<rect x="281" y="245" width="10" height="0.999999" transform="rotate(-90 281 245)" fill="white" fill-opacity="0.5"/>
</g>
<g style="mix-blend-mode:difference">
<rect x="449" y="245" width="10" height="0.999999" transform="rotate(-90 449 245)" fill="white" fill-opacity="0.5"/>
</g>
<g style="mix-blend-mode:difference">
<rect x="401" y="245" width="10" height="0.999999" transform="rotate(-90 401 245)" fill="white" fill-opacity="0.5"/>
</g>
<g style="mix-blend-mode:difference">
<rect x="353" y="245" width="10" height="0.999999" transform="rotate(-90 353 245)" fill="white" fill-opacity="0.5"/>
</g>
<g style="mix-blend-mode:difference">
<rect x="305" y="245" width="10" height="0.999999" transform="rotate(-90 305 245)" fill="white" fill-opacity="0.5"/>
</g>
<g style="mix-blend-mode:difference">
<rect x="257" y="245" width="10" height="0.999999" transform="rotate(-90 257 245)" fill="white" fill-opacity="0.5"/>
</g>
<g style="mix-blend-mode:difference">
<rect x="437" y="245" width="10" height="0.999999" transform="rotate(-90 437 245)" fill="white" fill-opacity="0.5"/>
</g>
<g style="mix-blend-mode:difference">
<rect x="389" y="245" width="10" height="0.999999" transform="rotate(-90 389 245)" fill="white" fill-opacity="0.5"/>
</g>
<g style="mix-blend-mode:difference">
<rect x="341" y="245" width="10" height="0.999999" transform="rotate(-90 341 245)" fill="white" fill-opacity="0.5"/>
</g>
<g style="mix-blend-mode:difference">
<rect x="293" y="245" width="10" height="0.999999" transform="rotate(-90 293 245)" fill="white" fill-opacity="0.5"/>
</g>
<g style="mix-blend-mode:difference">
<rect x="479" y="255" width="30" height="1" transform="rotate(-90 479 255)" fill="white" fill-opacity="0.5"/>
</g>
<g style="mix-blend-mode:difference">
<rect x="252" y="240.5" width="24" height="1" transform="rotate(-180 252 240.5)" fill="white" fill-opacity="0.5"/>
</g>
<g style="mix-blend-mode:difference">
<rect x="255" y="193" width="30" height="1" transform="rotate(-180 255 193)" fill="white" fill-opacity="0.5"/>
</g>
<g style="mix-blend-mode:difference">
<rect x="255" y="145" width="30" height="1" transform="rotate(-180 255 145)" fill="white" fill-opacity="0.5"/>
</g>
<g style="mix-blend-mode:difference">
<rect x="255" y="97" width="30" height="1" transform="rotate(-180 255 97)" fill="white" fill-opacity="0.5"/>
</g>
<g style="mix-blend-mode:difference">
<rect x="255" y="49" width="30" height="1" transform="rotate(-180 255 49)" fill="white" fill-opacity="0.5"/>
</g>
<g style="mix-blend-mode:difference">
<rect x="245" y="25" width="10" height="0.999999" transform="rotate(-180 245 25)" fill="white" fill-opacity="0.5"/>
</g>
<g style="mix-blend-mode:difference">
<rect x="245" y="73" width="10" height="0.999999" transform="rotate(-180 245 73)" fill="white" fill-opacity="0.5"/>
</g>
<g style="mix-blend-mode:difference">
<rect x="245" y="121" width="10" height="0.999999" transform="rotate(-180 245 121)" fill="white" fill-opacity="0.5"/>
</g>
<g style="mix-blend-mode:difference">
<rect x="245" y="169" width="10" height="0.999999" transform="rotate(-180 245 169)" fill="white" fill-opacity="0.5"/>
</g>
<g style="mix-blend-mode:difference">
<rect x="245" y="217" width="10" height="0.999999" transform="rotate(-180 245 217)" fill="white" fill-opacity="0.5"/>
</g>
<g style="mix-blend-mode:difference">
<rect x="245" y="37" width="10" height="0.999999" transform="rotate(-180 245 37)" fill="white" fill-opacity="0.5"/>
</g>
<g style="mix-blend-mode:difference">
<rect x="245" y="85" width="10" height="0.999999" transform="rotate(-180 245 85)" fill="white" fill-opacity="0.5"/>
</g>
<g style="mix-blend-mode:difference">
<rect x="245" y="133" width="10" height="0.999999" transform="rotate(-180 245 133)" fill="white" fill-opacity="0.5"/>
</g>
<g style="mix-blend-mode:difference">
<rect x="245" y="181" width="10" height="0.999999" transform="rotate(-180 245 181)" fill="white" fill-opacity="0.5"/>
</g>
<g style="mix-blend-mode:difference">
<rect x="245" y="19" width="10" height="0.999999" transform="rotate(-180 245 19)" fill="white" fill-opacity="0.5"/>
</g>
<g style="mix-blend-mode:difference">
<rect x="245" y="67" width="10" height="0.999999" transform="rotate(-180 245 67)" fill="white" fill-opacity="0.5"/>
</g>
<g style="mix-blend-mode:difference">
<rect x="245" y="115" width="10" height="0.999999" transform="rotate(-180 245 115)" fill="white" fill-opacity="0.5"/>
</g>
<g style="mix-blend-mode:difference">
<rect x="245" y="163" width="10" height="0.999999" transform="rotate(-180 245 163)" fill="white" fill-opacity="0.5"/>
</g>
<g style="mix-blend-mode:difference">
<rect x="245" y="211" width="10" height="0.999999" transform="rotate(-180 245 211)" fill="white" fill-opacity="0.5"/>
</g>
<g style="mix-blend-mode:difference">
<rect x="245" y="13" width="10" height="0.999999" transform="rotate(-180 245 13)" fill="white" fill-opacity="0.5"/>
</g>
<g style="mix-blend-mode:difference">
<rect x="245" y="61" width="10" height="0.999999" transform="rotate(-180 245 61)" fill="white" fill-opacity="0.5"/>
</g>
<g style="mix-blend-mode:difference">
<rect x="245" y="109" width="10" height="0.999999" transform="rotate(-180 245 109)" fill="white" fill-opacity="0.5"/>
</g>
<g style="mix-blend-mode:difference">
<rect x="245" y="157" width="10" height="0.999999" transform="rotate(-180 245 157)" fill="white" fill-opacity="0.5"/>
</g>
<g style="mix-blend-mode:difference">
<rect x="245" y="205" width="10" height="0.999999" transform="rotate(-180 245 205)" fill="white" fill-opacity="0.5"/>
</g>
<g style="mix-blend-mode:difference">
<rect x="245" y="7" width="10" height="0.999999" transform="rotate(-180 245 7)" fill="white" fill-opacity="0.5"/>
</g>
<g style="mix-blend-mode:difference">
<rect x="245" y="55" width="10" height="0.999999" transform="rotate(-180 245 55)" fill="white" fill-opacity="0.5"/>
</g>
<g style="mix-blend-mode:difference">
<rect x="245" y="103" width="10" height="0.999999" transform="rotate(-180 245 103)" fill="white" fill-opacity="0.5"/>
</g>
<g style="mix-blend-mode:difference">
<rect x="245" y="151" width="10" height="0.999999" transform="rotate(-180 245 151)" fill="white" fill-opacity="0.5"/>
</g>
<g style="mix-blend-mode:difference">
<rect x="245" y="199" width="10" height="0.999999" transform="rotate(-180 245 199)" fill="white" fill-opacity="0.5"/>
</g>
<g style="mix-blend-mode:difference">
<rect x="245" y="31" width="10" height="0.999999" transform="rotate(-180 245 31)" fill="white" fill-opacity="0.5"/>
</g>
<g style="mix-blend-mode:difference">
<rect x="245" y="79" width="10" height="0.999999" transform="rotate(-180 245 79)" fill="white" fill-opacity="0.5"/>
</g>
<g style="mix-blend-mode:difference">
<rect x="245" y="127" width="10" height="0.999999" transform="rotate(-180 245 127)" fill="white" fill-opacity="0.5"/>
</g>
<g style="mix-blend-mode:difference">
<rect x="245" y="175" width="10" height="0.999999" transform="rotate(-180 245 175)" fill="white" fill-opacity="0.5"/>
</g>
<g style="mix-blend-mode:difference">
<rect x="245" y="223" width="10" height="0.999999" transform="rotate(-180 245 223)" fill="white" fill-opacity="0.5"/>
</g>
<g style="mix-blend-mode:difference">
<rect x="245" y="43" width="10" height="0.999999" transform="rotate(-180 245 43)" fill="white" fill-opacity="0.5"/>
</g>
<g style="mix-blend-mode:difference">
<rect x="245" y="91" width="10" height="0.999999" transform="rotate(-180 245 91)" fill="white" fill-opacity="0.5"/>
</g>
<g style="mix-blend-mode:difference">
<rect x="245" y="139" width="10" height="0.999999" transform="rotate(-180 245 139)" fill="white" fill-opacity="0.5"/>
</g>
<g style="mix-blend-mode:difference">
<rect x="245" y="187" width="10" height="0.999999" transform="rotate(-180 245 187)" fill="white" fill-opacity="0.5"/>
</g>
<g style="mix-blend-mode:difference">
<rect x="255" y="1" width="30" height="1" transform="rotate(-180 255 1)" fill="white" fill-opacity="0.5"/>
</g>
<g style="mix-blend-mode:difference">
<rect x="225" y="287" width="30" height="1" fill="white" fill-opacity="0.5"/>
</g>
<g style="mix-blend-mode:difference">
<rect x="225" y="335" width="30" height="1" fill="white" fill-opacity="0.5"/>
</g>
<g style="mix-blend-mode:difference">
<rect x="225" y="383" width="30" height="1" fill="white" fill-opacity="0.5"/>
</g>
<g style="mix-blend-mode:difference">
<rect x="225" y="431" width="30" height="1" fill="white" fill-opacity="0.5"/>
</g>
<g style="mix-blend-mode:difference">
<rect x="235" y="455" width="10" height="0.999999" fill="white" fill-opacity="0.5"/>
</g>
<g style="mix-blend-mode:difference">
<rect x="235" y="407" width="10" height="0.999999" fill="white" fill-opacity="0.5"/>
</g>
<g style="mix-blend-mode:difference">
<rect x="235" y="359" width="10" height="0.999999" fill="white" fill-opacity="0.5"/>
</g>
<g style="mix-blend-mode:difference">
<rect x="235" y="311" width="10" height="0.999999" fill="white" fill-opacity="0.5"/>
</g>
<g style="mix-blend-mode:difference">
<rect x="235" y="263" width="10" height="0.999999" fill="white" fill-opacity="0.5"/>
</g>
<g style="mix-blend-mode:difference">
<rect x="235" y="443" width="10" height="0.999999" fill="white" fill-opacity="0.5"/>
</g>
<g style="mix-blend-mode:difference">
<rect x="235" y="395" width="10" height="0.999999" fill="white" fill-opacity="0.5"/>
</g>
<g style="mix-blend-mode:difference">
<rect x="235" y="347" width="10" height="0.999999" fill="white" fill-opacity="0.5"/>
</g>
<g style="mix-blend-mode:difference">
<rect x="235" y="299" width="10" height="0.999999" fill="white" fill-opacity="0.5"/>
</g>
<g style="mix-blend-mode:difference">
<rect x="235" y="461" width="10" height="0.999999" fill="white" fill-opacity="0.5"/>
</g>
<g style="mix-blend-mode:difference">
<rect x="235" y="413" width="10" height="0.999999" fill="white" fill-opacity="0.5"/>
</g>
<g style="mix-blend-mode:difference">
<rect x="235" y="365" width="10" height="0.999999" fill="white" fill-opacity="0.5"/>
</g>
<g style="mix-blend-mode:difference">
<rect x="235" y="317" width="10" height="0.999999" fill="white" fill-opacity="0.5"/>
</g>
<g style="mix-blend-mode:difference">
<rect x="235" y="269" width="10" height="0.999999" fill="white" fill-opacity="0.5"/>
</g>
<g style="mix-blend-mode:difference">
<rect x="235" y="467" width="10" height="0.999999" fill="white" fill-opacity="0.5"/>
</g>
<g style="mix-blend-mode:difference">
<rect x="235" y="419" width="10" height="0.999999" fill="white" fill-opacity="0.5"/>
</g>
<g style="mix-blend-mode:difference">
<rect x="235" y="371" width="10" height="0.999999" fill="white" fill-opacity="0.5"/>
</g>
<g style="mix-blend-mode:difference">
<rect x="235" y="323" width="10" height="0.999999" fill="white" fill-opacity="0.5"/>
</g>
<g style="mix-blend-mode:difference">
<rect x="235" y="275" width="10" height="0.999999" fill="white" fill-opacity="0.5"/>
</g>
<g style="mix-blend-mode:difference">
<rect x="235" y="473" width="10" height="0.999999" fill="white" fill-opacity="0.5"/>
</g>
<g style="mix-blend-mode:difference">
<rect x="235" y="425" width="10" height="0.999999" fill="white" fill-opacity="0.5"/>
</g>
<g style="mix-blend-mode:difference">
<rect x="235" y="377" width="10" height="0.999999" fill="white" fill-opacity="0.5"/>
</g>
<g style="mix-blend-mode:difference">
<rect x="235" y="329" width="10" height="0.999999" fill="white" fill-opacity="0.5"/>
</g>
<g style="mix-blend-mode:difference">
<rect x="235" y="281" width="10" height="0.999999" fill="white" fill-opacity="0.5"/>
</g>
<g style="mix-blend-mode:difference">
<rect x="235" y="449" width="10" height="0.999999" fill="white" fill-opacity="0.5"/>
</g>
<g style="mix-blend-mode:difference">
<rect x="235" y="401" width="10" height="0.999999" fill="white" fill-opacity="0.5"/>
</g>
<g style="mix-blend-mode:difference">
<rect x="235" y="353" width="10" height="0.999999" fill="white" fill-opacity="0.5"/>
</g>
<g style="mix-blend-mode:difference">
<rect x="235" y="305" width="10" height="0.999999" fill="white" fill-opacity="0.5"/>
</g>
<g style="mix-blend-mode:difference">
<rect x="235" y="257" width="10" height="0.999999" fill="white" fill-opacity="0.5"/>
</g>
<g style="mix-blend-mode:difference">
<rect x="235" y="437" width="10" height="0.999999" fill="white" fill-opacity="0.5"/>
</g>
<g style="mix-blend-mode:difference">
<rect x="235" y="389" width="10" height="0.999999" fill="white" fill-opacity="0.5"/>
</g>
<g style="mix-blend-mode:difference">
<rect x="235" y="341" width="10" height="0.999999" fill="white" fill-opacity="0.5"/>
</g>
<g style="mix-blend-mode:difference">
<rect x="235" y="293" width="10" height="0.999999" fill="white" fill-opacity="0.5"/>
</g>
<g style="mix-blend-mode:difference">
<rect x="225" y="479" width="30" height="1" fill="white" fill-opacity="0.5"/>
</g>
</svg>
