{
    "asset" : {
        "generator" : "Khronos glTF Blender I/O v1.4.40",
        "version" : "2.0"
    },
    "scene" : 0,
    "scenes" : [
        {
            "name" : "Scene",
            "nodes" : [
                0
            ]
        }
    ],
    "nodes" : [
        {
            "mesh" : 0,
            "name" : "Icosphere"
        }
    ],
    "meshes" : [
        {
            "name" : "Icosphere.002",
            "primitives" : [
                {
                    "attributes" : {
                        "POSITION" : 0,
                        "NORMAL" : 1,
                        "TEXCOORD_0" : 2
                    },
                    "indices" : 3
                }
            ]
        }
    ],
    "accessors" : [
        {
            "bufferView" : 0,
            "componentType" : 5126,
            "count" : 1453,
            "max" : [
                0.9656082391738892,
                1.0374832153320312,
                0.9523423910140991
            ],
            "min" : [
                -0.9636594653129578,
                -0.9334925413131714,
                -0.9361953735351562
            ],
            "type" : "VEC3"
        },
        {
            "bufferView" : 1,
            "componentType" : 5126,
            "count" : 1453,
            "type" : "VEC3"
        },
        {
            "bufferView" : 2,
            "componentType" : 5126,
            "count" : 1453,
            "type" : "VEC2"
        },
        {
            "bufferView" : 3,
            "componentType" : 5123,
            "count" : 5760,
            "type" : "SCALAR"
        }
    ],
    "bufferViews" : [
        {
            "buffer" : 0,
            "byteLength" : 17436,
            "byteOffset" : 0
        },
        {
            "buffer" : 0,
            "byteLength" : 17436,
            "byteOffset" : 17436
        },
        {
            "buffer" : 0,
            "byteLength" : 11624,
            "byteOffset" : 34872
        },
        {
            "buffer" : 0,
            "byteLength" : 11520,
            "byteOffset" : 46496
        }
    ],
    "buffers" : [
        {
            "byteLength" : 58016,
            "uri" : "data:application/octet-stream;base64,"
        }
    ]
}
