{
    "asset" : {
        "generator" : "Khronos glTF Blender I/O v1.4.40",
        "version" : "2.0"
    },
    "scene" : 0,
    "scenes" : [
        {
            "name" : "Scene",
            "nodes" : [
                0,
                1,
                2,
                3,
                4,
                5,
                6,
                7,
                8,
                9,
                10,
                11,
                12,
                13,
                14
            ]
        }
    ],
    "nodes" : [
        {
            "mesh" : 0,
            "name" : "Ground"
        },
        {
            "mesh" : 1,
            "name" : "Laucher-walk",
            "scale" : [
                10,
                1,
                10
            ],
            "translation" : [
                0,
                3,
                0
            ]
        },
        {
            "mesh" : 2,
            "name" : "Artuculations",
            "translation" : [
                0,
                5.045314311981201,
                0
            ]
        },
        {
            "mesh" : 3,
            "name" : "Base",
            "scale" : [
                2.918940782546997,
                2.918940782546997,
                2.918940782546997
            ],
            "translation" : [
                0,
                2.9950308799743652,
                0
            ]
        },
        {
            "name" : "Spot-01-Left",
            "rotation" : [
                0.11215712875127792,
                -0.10277307033538818,
                -0.7286965250968933,
                0.6677273511886597
            ],
            "translation" : [
                50,
                2,
                13
            ]
        },
        {
            "name" : "Spot-01-Right",
            "rotation" : [
                -0.11215712875127792,
                0.10277307033538818,
                -0.7286965250968933,
                0.6677273511886597
            ],
            "translation" : [
                50,
                2,
                -13
            ]
        },
        {
            "name" : "Spot-02-Left",
            "rotation" : [
                0.1282660961151123,
                -0.10386783629655838,
                -0.7664880156517029,
                0.6206896901130676
            ],
            "translation" : [
                40,
                2,
                14
            ]
        },
        {
            "name" : "Spot-02-Right",
            "rotation" : [
                -0.1282660961151123,
                0.10386783629655838,
                -0.7664880156517029,
                0.6206896901130676
            ],
            "translation" : [
                40,
                2,
                -14
            ]
        },
        {
            "name" : "Spot-03-Left",
            "rotation" : [
                0.19076934456825256,
                -0.11920591443777084,
                -0.826312780380249,
                0.516337513923645
            ],
            "translation" : [
                30,
                2,
                15
            ]
        },
        {
            "name" : "Spot-03-Right",
            "rotation" : [
                -0.19076934456825256,
                0.11920591443777084,
                -0.826312780380249,
                0.516337513923645
            ],
            "translation" : [
                30,
                2,
                -15
            ]
        },
        {
            "name" : "Spot-04-Left",
            "rotation" : [
                0.3044719994068146,
                -0.13683514297008514,
                -0.8598023653030396,
                0.38641050457954407
            ],
            "translation" : [
                20,
                2,
                16
            ]
        },
        {
            "name" : "Spot-04-Right",
            "rotation" : [
                -0.30494776368141174,
                0.1357714682817459,
                -0.8611458539962769,
                0.3834068179130554
            ],
            "translation" : [
                20,
                2,
                -16
            ]
        },
        {
            "name" : "Point-Bottom",
            "rotation" : [
                0,
                0,
                0.7071068286895752,
                0.7071068286895752
            ],
            "translation" : [
                -70,
                20,
                0
            ]
        },
        {
            "name" : "Point-Top",
            "rotation" : [
                0,
                0,
                -0.7071068286895752,
                0.7071068286895752
            ],
            "translation" : [
                110,
                20,
                0
            ]
        },
        {
            "name" : "Point",
            "translation" : [
                0,
                1.512730360031128,
                0
            ]
        }
    ],
    "animations" : [
        {
            "channels" : [
                {
                    "sampler" : 0,
                    "target" : {
                        "node" : 4,
                        "path" : "rotation"
                    }
                }
            ],
            "name" : "Spot-01-LeftAction",
            "samplers" : [
                {
                    "input" : 16,
                    "interpolation" : "LINEAR",
                    "output" : 17
                }
            ]
        },
        {
            "channels" : [
                {
                    "sampler" : 0,
                    "target" : {
                        "node" : 5,
                        "path" : "rotation"
                    }
                }
            ],
            "name" : "Spot-01-RightAction",
            "samplers" : [
                {
                    "input" : 16,
                    "interpolation" : "LINEAR",
                    "output" : 18
                }
            ]
        },
        {
            "channels" : [
                {
                    "sampler" : 0,
                    "target" : {
                        "node" : 6,
                        "path" : "rotation"
                    }
                }
            ],
            "name" : "Spot-02-LeftAction",
            "samplers" : [
                {
                    "input" : 16,
                    "interpolation" : "LINEAR",
                    "output" : 19
                }
            ]
        },
        {
            "channels" : [
                {
                    "sampler" : 0,
                    "target" : {
                        "node" : 7,
                        "path" : "rotation"
                    }
                }
            ],
            "name" : "Spot-02-RightAction",
            "samplers" : [
                {
                    "input" : 16,
                    "interpolation" : "LINEAR",
                    "output" : 20
                }
            ]
        },
        {
            "channels" : [
                {
                    "sampler" : 0,
                    "target" : {
                        "node" : 8,
                        "path" : "rotation"
                    }
                }
            ],
            "name" : "Spot-03-LeftAction",
            "samplers" : [
                {
                    "input" : 16,
                    "interpolation" : "LINEAR",
                    "output" : 21
                }
            ]
        },
        {
            "channels" : [
                {
                    "sampler" : 0,
                    "target" : {
                        "node" : 9,
                        "path" : "rotation"
                    }
                }
            ],
            "name" : "Spot-03-RightAction",
            "samplers" : [
                {
                    "input" : 16,
                    "interpolation" : "LINEAR",
                    "output" : 22
                }
            ]
        },
        {
            "channels" : [
                {
                    "sampler" : 0,
                    "target" : {
                        "node" : 10,
                        "path" : "rotation"
                    }
                }
            ],
            "name" : "Spot-04-LeftAction.002",
            "samplers" : [
                {
                    "input" : 16,
                    "interpolation" : "LINEAR",
                    "output" : 23
                }
            ]
        },
        {
            "channels" : [
                {
                    "sampler" : 0,
                    "target" : {
                        "node" : 11,
                        "path" : "rotation"
                    }
                }
            ],
            "name" : "Spot-04-RightAction",
            "samplers" : [
                {
                    "input" : 16,
                    "interpolation" : "LINEAR",
                    "output" : 24
                }
            ]
        }
    ],
    "meshes" : [
        {
            "name" : "Plane.001",
            "primitives" : [
                {
                    "attributes" : {
                        "POSITION" : 0,
                        "NORMAL" : 1,
                        "TEXCOORD_0" : 2
                    },
                    "indices" : 3
                }
            ]
        },
        {
            "name" : "Plane",
            "primitives" : [
                {
                    "attributes" : {
                        "POSITION" : 4,
                        "NORMAL" : 5,
                        "TEXCOORD_0" : 6
                    },
                    "indices" : 7
                }
            ]
        },
        {
            "name" : "Cone.002",
            "primitives" : [
                {
                    "attributes" : {
                        "POSITION" : 8,
                        "NORMAL" : 9,
                        "TEXCOORD_0" : 10
                    },
                    "indices" : 11
                }
            ]
        },
        {
            "name" : "Cone.003",
            "primitives" : [
                {
                    "attributes" : {
                        "POSITION" : 12,
                        "NORMAL" : 13,
                        "TEXCOORD_0" : 14
                    },
                    "indices" : 15
                }
            ]
        }
    ],
    "accessors" : [
        {
            "bufferView" : 0,
            "componentType" : 5126,
            "count" : 4,
            "max" : [
                90,
                0,
                50
            ],
            "min" : [
                -50,
                0,
                -50
            ],
            "type" : "VEC3"
        },
        {
            "bufferView" : 1,
            "componentType" : 5126,
            "count" : 4,
            "type" : "VEC3"
        },
        {
            "bufferView" : 2,
            "componentType" : 5126,
            "count" : 4,
            "type" : "VEC2"
        },
        {
            "bufferView" : 3,
            "componentType" : 5123,
            "count" : 6,
            "type" : "SCALAR"
        },
        {
            "bufferView" : 4,
            "componentType" : 5126,
            "count" : 232,
            "max" : [
                6,
                0,
                1.5
            ],
            "min" : [
                -2,
                -3,
                -1.5
            ],
            "type" : "VEC3"
        },
        {
            "bufferView" : 5,
            "componentType" : 5126,
            "count" : 232,
            "type" : "VEC3"
        },
        {
            "bufferView" : 6,
            "componentType" : 5126,
            "count" : 232,
            "type" : "VEC2"
        },
        {
            "bufferView" : 7,
            "componentType" : 5123,
            "count" : 576,
            "type" : "SCALAR"
        },
        {
            "bufferView" : 8,
            "componentType" : 5126,
            "count" : 384,
            "max" : [
                1.1478207111358643,
                -0.6870843172073364,
                0.9691109657287598
            ],
            "min" : [
                -1.1478208303451538,
                -1.0216602087020874,
                -0.9691118597984314
            ],
            "type" : "VEC3"
        },
        {
            "bufferView" : 9,
            "componentType" : 5126,
            "count" : 384,
            "type" : "VEC3"
        },
        {
            "bufferView" : 10,
            "componentType" : 5126,
            "count" : 384,
            "type" : "VEC2"
        },
        {
            "bufferView" : 11,
            "componentType" : 5123,
            "count" : 576,
            "type" : "SCALAR"
        },
        {
            "bufferView" : 12,
            "componentType" : 5126,
            "count" : 647,
            "max" : [
                1.3184539079666138,
                0.3535749614238739,
                1.3184540271759033
            ],
            "min" : [
                -1.3184539079666138,
                -0.16680988669395447,
                -1.3184537887573242
            ],
            "type" : "VEC3"
        },
        {
            "bufferView" : 13,
            "componentType" : 5126,
            "count" : 647,
            "type" : "VEC3"
        },
        {
            "bufferView" : 14,
            "componentType" : 5126,
            "count" : 647,
            "type" : "VEC2"
        },
        {
            "bufferView" : 15,
            "componentType" : 5123,
            "count" : 1629,
            "type" : "SCALAR"
        },
        {
            "bufferView" : 16,
            "componentType" : 5126,
            "count" : 150,
            "max" : [
                6.25
            ],
            "min" : [
                0.041666666666666664
            ],
            "type" : "SCALAR"
        },
        {
            "bufferView" : 17,
            "componentType" : 5126,
            "count" : 150,
            "type" : "VEC4"
        },
        {
            "bufferView" : 18,
            "componentType" : 5126,
            "count" : 150,
            "type" : "VEC4"
        },
        {
            "bufferView" : 19,
            "componentType" : 5126,
            "count" : 150,
            "type" : "VEC4"
        },
        {
            "bufferView" : 20,
            "componentType" : 5126,
            "count" : 150,
            "type" : "VEC4"
        },
        {
            "bufferView" : 21,
            "componentType" : 5126,
            "count" : 150,
            "type" : "VEC4"
        },
        {
            "bufferView" : 22,
            "componentType" : 5126,
            "count" : 150,
            "type" : "VEC4"
        },
        {
            "bufferView" : 23,
            "componentType" : 5126,
            "count" : 150,
            "type" : "VEC4"
        },
        {
            "bufferView" : 24,
            "componentType" : 5126,
            "count" : 150,
            "type" : "VEC4"
        }
    ],
    "bufferViews" : [
        {
            "buffer" : 0,
            "byteLength" : 48,
            "byteOffset" : 0
        },
        {
            "buffer" : 0,
            "byteLength" : 48,
            "byteOffset" : 48
        },
        {
            "buffer" : 0,
            "byteLength" : 32,
            "byteOffset" : 96
        },
        {
            "buffer" : 0,
            "byteLength" : 12,
            "byteOffset" : 128
        },
        {
            "buffer" : 0,
            "byteLength" : 2784,
            "byteOffset" : 140
        },
        {
            "buffer" : 0,
            "byteLength" : 2784,
            "byteOffset" : 2924
        },
        {
            "buffer" : 0,
            "byteLength" : 1856,
            "byteOffset" : 5708
        },
        {
            "buffer" : 0,
            "byteLength" : 1152,
            "byteOffset" : 7564
        },
        {
            "buffer" : 0,
            "byteLength" : 4608,
            "byteOffset" : 8716
        },
        {
            "buffer" : 0,
            "byteLength" : 4608,
            "byteOffset" : 13324
        },
        {
            "buffer" : 0,
            "byteLength" : 3072,
            "byteOffset" : 17932
        },
        {
            "buffer" : 0,
            "byteLength" : 1152,
            "byteOffset" : 21004
        },
        {
            "buffer" : 0,
            "byteLength" : 7764,
            "byteOffset" : 22156
        },
        {
            "buffer" : 0,
            "byteLength" : 7764,
            "byteOffset" : 29920
        },
        {
            "buffer" : 0,
            "byteLength" : 5176,
            "byteOffset" : 37684
        },
        {
            "buffer" : 0,
            "byteLength" : 3258,
            "byteOffset" : 42860
        },
        {
            "buffer" : 0,
            "byteLength" : 600,
            "byteOffset" : 46120
        },
        {
            "buffer" : 0,
            "byteLength" : 2400,
            "byteOffset" : 46720
        },
        {
            "buffer" : 0,
            "byteLength" : 2400,
            "byteOffset" : 49120
        },
        {
            "buffer" : 0,
            "byteLength" : 2400,
            "byteOffset" : 51520
        },
        {
            "buffer" : 0,
            "byteLength" : 2400,
            "byteOffset" : 53920
        },
        {
            "buffer" : 0,
            "byteLength" : 2400,
            "byteOffset" : 56320
        },
        {
            "buffer" : 0,
            "byteLength" : 2400,
            "byteOffset" : 58720
        },
        {
            "buffer" : 0,
            "byteLength" : 2400,
            "byteOffset" : 61120
        },
        {
            "buffer" : 0,
            "byteLength" : 2400,
            "byteOffset" : 63520
        }
    ],
    "buffers" : [
        {
            "byteLength" : 65920,
            "uri" : "data:application/octet-stream;base64,"
        }
    ]
}
